<svg xmlns="http://www.w3.org/2000/svg" width="980" height="560" viewBox="0 0 980 560">
<rect width="100%" height="100%" fill="#ffffff"/>
<text x="490.0" y="34.0" font-family="Arial, sans-serif" font-size="22" font-weight="700" text-anchor="middle" fill="#111827">Average Turnaround Time (4 Workers)</text>
<text x="490.0" y="58.0" font-family="Arial, sans-serif" font-size="12" font-weight="400" text-anchor="middle" fill="#111827">Generated from scheduler log summaries</text>
<line x1="82" y1="474.0" x2="948" y2="474.0" stroke="#e5e7eb"/>
<text x="70.0" y="478.0" font-family="Arial, sans-serif" font-size="11" font-weight="400" text-anchor="end" fill="#111827">0.0</text>
<line x1="82" y1="394.8" x2="948" y2="394.8" stroke="#e5e7eb"/>
<text x="70.0" y="398.8" font-family="Arial, sans-serif" font-size="11" font-weight="400" text-anchor="end" fill="#111827">40.0</text>
<line x1="82" y1="315.6" x2="948" y2="315.6" stroke="#e5e7eb"/>
<text x="70.0" y="319.6" font-family="Arial, sans-serif" font-size="11" font-weight="400" text-anchor="end" fill="#111827">80.0</text>
<line x1="82" y1="236.4" x2="948" y2="236.4" stroke="#e5e7eb"/>
<text x="70.0" y="240.4" font-family="Arial, sans-serif" font-size="11" font-weight="400" text-anchor="end" fill="#111827">120.0</text>
<line x1="82" y1="157.2" x2="948" y2="157.2" stroke="#e5e7eb"/>
<text x="70.0" y="161.2" font-family="Arial, sans-serif" font-size="11" font-weight="400" text-anchor="end" fill="#111827">160.0</text>
<line x1="82" y1="78.0" x2="948" y2="78.0" stroke="#e5e7eb"/>
<text x="70.0" y="82.0" font-family="Arial, sans-serif" font-size="11" font-weight="400" text-anchor="end" fill="#111827">200.0</text>
<line x1="82" y1="78" x2="82" y2="474" stroke="#374151"/>
<line x1="82" y1="474" x2="948" y2="474" stroke="#374151"/>
<text x="24.0" y="276.0" font-family="Arial, sans-serif" font-size="12" font-weight="400" text-anchor="middle" fill="#111827">Time units</text>
<text x="226.3" y="522.0" font-family="Arial, sans-serif" font-size="13" font-weight="700" text-anchor="middle" fill="#111827">Workload A</text>
<rect x="122.4" y="461.1" width="46.0" height="12.9" fill="#2563eb" rx="3"/>
<text x="145.4" y="455.1" font-family="Arial, sans-serif" font-size="10" font-weight="400" text-anchor="middle" fill="#111827">6.5</text>
<rect x="176.4" y="461.8" width="46.0" height="12.2" fill="#16a34a" rx="3"/>
<text x="199.4" y="455.8" font-family="Arial, sans-serif" font-size="10" font-weight="400" text-anchor="middle" fill="#111827">6.14</text>
<rect x="230.3" y="461.0" width="46.0" height="13.0" fill="#d97706" rx="3"/>
<text x="253.3" y="455.0" font-family="Arial, sans-serif" font-size="10" font-weight="400" text-anchor="middle" fill="#111827">6.58</text>
<rect x="284.3" y="461.1" width="46.0" height="12.9" fill="#7c3aed" rx="3"/>
<text x="307.3" y="455.1" font-family="Arial, sans-serif" font-size="10" font-weight="400" text-anchor="middle" fill="#111827">6.5</text>
<text x="515.0" y="522.0" font-family="Arial, sans-serif" font-size="13" font-weight="700" text-anchor="middle" fill="#111827">Workload B</text>
<rect x="411.1" y="269.3" width="46.0" height="204.7" fill="#2563eb" rx="3"/>
<text x="434.1" y="263.3" font-family="Arial, sans-serif" font-size="10" font-weight="400" text-anchor="middle" fill="#111827">103.36</text>
<rect x="465.0" y="383.1" width="46.0" height="90.9" fill="#16a34a" rx="3"/>
<text x="488.0" y="377.1" font-family="Arial, sans-serif" font-size="10" font-weight="400" text-anchor="middle" fill="#111827">45.92</text>
<rect x="519.0" y="308.9" width="46.0" height="165.1" fill="#d97706" rx="3"/>
<text x="542.0" y="302.9" font-family="Arial, sans-serif" font-size="10" font-weight="400" text-anchor="middle" fill="#111827">83.4</text>
<rect x="573.0" y="271.3" width="46.0" height="202.7" fill="#7c3aed" rx="3"/>
<text x="595.9" y="265.3" font-family="Arial, sans-serif" font-size="10" font-weight="400" text-anchor="middle" fill="#111827">102.36</text>
<text x="803.7" y="522.0" font-family="Arial, sans-serif" font-size="13" font-weight="700" text-anchor="middle" fill="#111827">Workload C</text>
<rect x="699.7" y="467.5" width="46.0" height="6.5" fill="#2563eb" rx="3"/>
<text x="722.7" y="461.5" font-family="Arial, sans-serif" font-size="10" font-weight="400" text-anchor="middle" fill="#111827">3.28</text>
<rect x="753.7" y="467.7" width="46.0" height="6.3" fill="#16a34a" rx="3"/>
<text x="776.7" y="461.7" font-family="Arial, sans-serif" font-size="10" font-weight="400" text-anchor="middle" fill="#111827">3.16</text>
<rect x="807.7" y="467.6" width="46.0" height="6.4" fill="#d97706" rx="3"/>
<text x="830.6" y="461.6" font-family="Arial, sans-serif" font-size="10" font-weight="400" text-anchor="middle" fill="#111827">3.22</text>
<rect x="861.6" y="467.6" width="46.0" height="6.4" fill="#7c3aed" rx="3"/>
<text x="884.6" y="461.6" font-family="Arial, sans-serif" font-size="10" font-weight="400" text-anchor="middle" fill="#111827">3.22</text>
<rect x="82" y="532" width="12" height="12" fill="#2563eb" rx="2"/>
<text x="100.0" y="542.0" font-family="Arial, sans-serif" font-size="12" font-weight="400" text-anchor="start" fill="#111827">FIFO</text>
<rect x="178" y="532" width="12" height="12" fill="#16a34a" rx="2"/>
<text x="196.0" y="542.0" font-family="Arial, sans-serif" font-size="12" font-weight="400" text-anchor="start" fill="#111827">SJF</text>
<rect x="274" y="532" width="12" height="12" fill="#d97706" rx="2"/>
<text x="292.0" y="542.0" font-family="Arial, sans-serif" font-size="12" font-weight="400" text-anchor="start" fill="#111827">Priority</text>
<rect x="370" y="532" width="12" height="12" fill="#7c3aed" rx="2"/>
<text x="388.0" y="542.0" font-family="Arial, sans-serif" font-size="12" font-weight="400" text-anchor="start" fill="#111827">Aging</text>
</svg>
