<svg xmlns="http://www.w3.org/2000/svg" width="980" height="560" viewBox="0 0 980 560">
<rect width="100%" height="100%" fill="#ffffff"/>
<text x="490.0" y="34.0" font-family="Arial, sans-serif" font-size="22" font-weight="700" text-anchor="middle" fill="#111827">Dataset Size and Arrival Span</text>
<text x="490.0" y="58.0" font-family="Arial, sans-serif" font-size="12" font-weight="400" text-anchor="middle" fill="#111827">Job count and simulated arrival-time range</text>
<line x1="82" y1="468.0" x2="948" y2="468.0" stroke="#e5e7eb"/>
<text x="70.0" y="472.0" font-family="Arial, sans-serif" font-size="11" font-weight="400" text-anchor="end" fill="#111827">0.0</text>
<line x1="82" y1="390.0" x2="948" y2="390.0" stroke="#e5e7eb"/>
<text x="70.0" y="394.0" font-family="Arial, sans-serif" font-size="11" font-weight="400" text-anchor="end" fill="#111827">10.0</text>
<line x1="82" y1="312.0" x2="948" y2="312.0" stroke="#e5e7eb"/>
<text x="70.0" y="316.0" font-family="Arial, sans-serif" font-size="11" font-weight="400" text-anchor="end" fill="#111827">20.0</text>
<line x1="82" y1="234.0" x2="948" y2="234.0" stroke="#e5e7eb"/>
<text x="70.0" y="238.0" font-family="Arial, sans-serif" font-size="11" font-weight="400" text-anchor="end" fill="#111827">30.0</text>
<line x1="82" y1="156.0" x2="948" y2="156.0" stroke="#e5e7eb"/>
<text x="70.0" y="160.0" font-family="Arial, sans-serif" font-size="11" font-weight="400" text-anchor="end" fill="#111827">40.0</text>
<line x1="82" y1="78.0" x2="948" y2="78.0" stroke="#e5e7eb"/>
<text x="70.0" y="82.0" font-family="Arial, sans-serif" font-size="11" font-weight="400" text-anchor="end" fill="#111827">50.0</text>
<line x1="82" y1="78" x2="82" y2="468" stroke="#374151"/>
<line x1="82" y1="468" x2="948" y2="468" stroke="#374151"/>
<text x="24.0" y="273.0" font-family="Arial, sans-serif" font-size="12" font-weight="400" text-anchor="middle" fill="#111827">Count / time units</text>
<text x="226.3" y="518.0" font-family="Arial, sans-serif" font-size="13" font-weight="700" text-anchor="middle" fill="#111827">Workload A</text>
<rect x="119.5" y="319.8" width="102.8" height="148.2" fill="#2563eb" rx="3"/>
<text x="170.9" y="313.8" font-family="Arial, sans-serif" font-size="10" font-weight="400" text-anchor="middle" fill="#111827">19</text>
<rect x="230.3" y="327.6" width="102.8" height="140.4" fill="#7c3aed" rx="3"/>
<text x="281.7" y="321.6" font-family="Arial, sans-serif" font-size="10" font-weight="400" text-anchor="middle" fill="#111827">18</text>
<text x="515.0" y="518.0" font-family="Arial, sans-serif" font-size="13" font-weight="700" text-anchor="middle" fill="#111827">Workload B</text>
<rect x="408.2" y="319.8" width="102.8" height="148.2" fill="#2563eb" rx="3"/>
<text x="459.6" y="313.8" font-family="Arial, sans-serif" font-size="10" font-weight="400" text-anchor="middle" fill="#111827">19</text>
<rect x="519.0" y="444.6" width="102.8" height="23.4" fill="#7c3aed" rx="3"/>
<text x="570.4" y="438.6" font-family="Arial, sans-serif" font-size="10" font-weight="400" text-anchor="middle" fill="#111827">3</text>
<text x="803.7" y="518.0" font-family="Arial, sans-serif" font-size="13" font-weight="700" text-anchor="middle" fill="#111827">Workload C</text>
<rect x="696.9" y="319.8" width="102.8" height="148.2" fill="#2563eb" rx="3"/>
<text x="748.3" y="313.8" font-family="Arial, sans-serif" font-size="10" font-weight="400" text-anchor="middle" fill="#111827">19</text>
<rect x="807.7" y="351.0" width="102.8" height="117.0" fill="#7c3aed" rx="3"/>
<text x="859.1" y="345.0" font-family="Arial, sans-serif" font-size="10" font-weight="400" text-anchor="middle" fill="#111827">15</text>
<rect x="82" y="532" width="12" height="12" fill="#2563eb" rx="2"/>
<text x="100.0" y="542.0" font-family="Arial, sans-serif" font-size="12" font-weight="400" text-anchor="start" fill="#111827">Job count</text>
<rect x="188" y="532" width="12" height="12" fill="#7c3aed" rx="2"/>
<text x="206.0" y="542.0" font-family="Arial, sans-serif" font-size="12" font-weight="400" text-anchor="start" fill="#111827">Arrival span</text>
</svg>
