<svg xmlns="http://www.w3.org/2000/svg" width="980" height="560" viewBox="0 0 980 560">
<rect width="100%" height="100%" fill="#ffffff"/>
<text x="490.0" y="34.0" font-family="Arial, sans-serif" font-size="22" font-weight="700" text-anchor="middle" fill="#111827">Worker Scaling - Workload C</text>
<text x="490.0" y="58.0" font-family="Arial, sans-serif" font-size="12" font-weight="400" text-anchor="middle" fill="#111827">Average waiting time by worker count</text>
<line x1="82" y1="478.0" x2="948" y2="478.0" stroke="#e5e7eb"/>
<text x="70.0" y="482.0" font-family="Arial, sans-serif" font-size="11" font-weight="400" text-anchor="end" fill="#111827">0.0</text>
<line x1="82" y1="398.0" x2="948" y2="398.0" stroke="#e5e7eb"/>
<text x="70.0" y="402.0" font-family="Arial, sans-serif" font-size="11" font-weight="400" text-anchor="end" fill="#111827">4.0</text>
<line x1="82" y1="318.0" x2="948" y2="318.0" stroke="#e5e7eb"/>
<text x="70.0" y="322.0" font-family="Arial, sans-serif" font-size="11" font-weight="400" text-anchor="end" fill="#111827">8.0</text>
<line x1="82" y1="238.0" x2="948" y2="238.0" stroke="#e5e7eb"/>
<text x="70.0" y="242.0" font-family="Arial, sans-serif" font-size="11" font-weight="400" text-anchor="end" fill="#111827">12.0</text>
<line x1="82" y1="158.0" x2="948" y2="158.0" stroke="#e5e7eb"/>
<text x="70.0" y="162.0" font-family="Arial, sans-serif" font-size="11" font-weight="400" text-anchor="end" fill="#111827">16.0</text>
<line x1="82" y1="78.0" x2="948" y2="78.0" stroke="#e5e7eb"/>
<text x="70.0" y="82.0" font-family="Arial, sans-serif" font-size="11" font-weight="400" text-anchor="end" fill="#111827">20.0</text>
<line x1="82" y1="78" x2="82" y2="478" stroke="#374151"/>
<line x1="82" y1="478" x2="948" y2="478" stroke="#374151"/>
<text x="490.0" y="538.0" font-family="Arial, sans-serif" font-size="13" font-weight="700" text-anchor="middle" fill="#111827">Workers</text>
<text x="24.0" y="278.0" font-family="Arial, sans-serif" font-size="12" font-weight="400" text-anchor="middle" fill="#111827">Avg waiting time</text>
<line x1="82.0" y1="478" x2="82.0" y2="484" stroke="#374151"/>
<text x="82.0" y="504.0" font-family="Arial, sans-serif" font-size="12" font-weight="400" text-anchor="middle" fill="#111827">2</text>
<line x1="515.0" y1="478" x2="515.0" y2="484" stroke="#374151"/>
<text x="515.0" y="504.0" font-family="Arial, sans-serif" font-size="12" font-weight="400" text-anchor="middle" fill="#111827">4</text>
<line x1="948.0" y1="478" x2="948.0" y2="484" stroke="#374151"/>
<text x="948.0" y="504.0" font-family="Arial, sans-serif" font-size="12" font-weight="400" text-anchor="middle" fill="#111827">8</text>
<polyline points="82.0,214.0 515.0,467.2 948.0,478.0" fill="none" stroke="#2563eb" stroke-width="3"/>
<circle cx="82.0" cy="214.0" r="5" fill="#2563eb"/>
<text x="82.0" y="204.0" font-family="Arial, sans-serif" font-size="10" font-weight="400" text-anchor="middle" fill="#111827">13.2</text>
<circle cx="515.0" cy="467.2" r="5" fill="#2563eb"/>
<text x="515.0" y="457.2" font-family="Arial, sans-serif" font-size="10" font-weight="400" text-anchor="middle" fill="#111827">0.54</text>
<circle cx="948.0" cy="478.0" r="5" fill="#2563eb"/>
<text x="948.0" y="468.0" font-family="Arial, sans-serif" font-size="10" font-weight="400" text-anchor="middle" fill="#111827">0</text>
<polyline points="82.0,262.0 515.0,470.4 948.0,478.0" fill="none" stroke="#16a34a" stroke-width="3"/>
<circle cx="82.0" cy="262.0" r="5" fill="#16a34a"/>
<text x="82.0" y="252.0" font-family="Arial, sans-serif" font-size="10" font-weight="400" text-anchor="middle" fill="#111827">10.8</text>
<circle cx="515.0" cy="470.4" r="5" fill="#16a34a"/>
<text x="515.0" y="460.4" font-family="Arial, sans-serif" font-size="10" font-weight="400" text-anchor="middle" fill="#111827">0.38</text>
<circle cx="948.0" cy="478.0" r="5" fill="#16a34a"/>
<text x="948.0" y="468.0" font-family="Arial, sans-serif" font-size="10" font-weight="400" text-anchor="middle" fill="#111827">0</text>
<polyline points="82.0,219.0 515.0,468.0 948.0,478.0" fill="none" stroke="#d97706" stroke-width="3"/>
<circle cx="82.0" cy="219.0" r="5" fill="#d97706"/>
<text x="82.0" y="209.0" font-family="Arial, sans-serif" font-size="10" font-weight="400" text-anchor="middle" fill="#111827">12.95</text>
<circle cx="515.0" cy="468.0" r="5" fill="#d97706"/>
<text x="515.0" y="458.0" font-family="Arial, sans-serif" font-size="10" font-weight="400" text-anchor="middle" fill="#111827">0.5</text>
<circle cx="948.0" cy="478.0" r="5" fill="#d97706"/>
<text x="948.0" y="468.0" font-family="Arial, sans-serif" font-size="10" font-weight="400" text-anchor="middle" fill="#111827">0</text>
<polyline points="82.0,218.0 515.0,468.4 948.0,478.0" fill="none" stroke="#7c3aed" stroke-width="3"/>
<circle cx="82.0" cy="218.0" r="5" fill="#7c3aed"/>
<text x="82.0" y="208.0" font-family="Arial, sans-serif" font-size="10" font-weight="400" text-anchor="middle" fill="#111827">13</text>
<circle cx="515.0" cy="468.4" r="5" fill="#7c3aed"/>
<text x="515.0" y="458.4" font-family="Arial, sans-serif" font-size="10" font-weight="400" text-anchor="middle" fill="#111827">0.48</text>
<circle cx="948.0" cy="478.0" r="5" fill="#7c3aed"/>
<text x="948.0" y="468.0" font-family="Arial, sans-serif" font-size="10" font-weight="400" text-anchor="middle" fill="#111827">0</text>
<rect x="82" y="502" width="12" height="12" fill="#2563eb" rx="2"/>
<text x="100.0" y="512.0" font-family="Arial, sans-serif" font-size="12" font-weight="400" text-anchor="start" fill="#111827">FIFO</text>
<rect x="178" y="502" width="12" height="12" fill="#16a34a" rx="2"/>
<text x="196.0" y="512.0" font-family="Arial, sans-serif" font-size="12" font-weight="400" text-anchor="start" fill="#111827">SJF</text>
<rect x="274" y="502" width="12" height="12" fill="#d97706" rx="2"/>
<text x="292.0" y="512.0" font-family="Arial, sans-serif" font-size="12" font-weight="400" text-anchor="start" fill="#111827">Priority</text>
<rect x="370" y="502" width="12" height="12" fill="#7c3aed" rx="2"/>
<text x="388.0" y="512.0" font-family="Arial, sans-serif" font-size="12" font-weight="400" text-anchor="start" fill="#111827">Aging</text>
</svg>
